# xmcd
#
# Track frame offsets:
#	150
#	16085
#	37182
#	59487
#	77237
#	92262
#	120365
#	142672
#	154445
#	167337
#	184437
#	200195
#	217660
#	238617
#	256955
#	279135
#	298107
#
# Disc length: 4296 seconds
#
# Revision: 1
# Processed by: cddbd v1.5PL3 Copyright (c) Steve Scherf et al.
# Submitted via: CDex 1.50Beta5
#
DISCID=e710c611
DTITLE=Sleep My Dear - Sleep My Best
DYEAR=1997
DGENRE=Rock
TTITLE0=Dear and Hate
TTITLE1=Freedom
TTITLE2=Invisible
TTITLE3=O
TTITLE4=Air
TTITLE5=Mi:rage
TTITLE6=NOS・TAL・GI・A
TTITLE7=Wild Goose
TTITLE8=S・N・O・B
TTITLE9=Ask for Eyes
TTITLE10=Flowers
TTITLE11=Backward
TTITLE12=Get in Noise
TTITLE13=Untrue Thinker
TTITLE14=Death
TTITLE15=Sleep My Dear
TTITLE16=Believe
EXTD=
EXTT0=
EXTT1=
EXTT2=
EXTT3=
EXTT4=
EXTT5=
EXTT6=
EXTT7=
EXTT8=
EXTT9=
EXTT10=
EXTT11=
EXTT12=
EXTT13=
EXTT14=
EXTT15=
EXTT16=
PLAYORDER=
